# xmcd
#
# Track frame offsets:
#	150
#	16389
#	34884
#	54798
#	70757
#	86135
#	102365
#	120858
#	140772
#	156731
#
# Disc length: 2294 seconds
#
# Revision: 1
# Processed by: cddbd v1.5.2PL0 Copyright (c) Steve Scherf et al.
# Submitted via: audiograbber 1.83.01
#
DISCID=8408f40a
DTITLE=Karaoke - Modern Country 41053-2
DYEAR=2005
DGENRE=Karaoke Country 41053-2
TTITLE0=Gretchen Wilson - Redneck Woman
TTITLE1=Faith Hill - Breathe
TTITLE2=Martina McBride - Concrete Angel
TTITLE3=Lee Ann Womack - Does My Ring Burn Your Finger
TTITLE4=Gretchen Wilson - Here For The Party
TTITLE5=Gretchen Wilson - Redneck Woman (Vocal)
TTITLE6=Faith Hill - Breathe (Vocal)
TTITLE7=Martina McBride - Concrete Angel (Vocal)
TTITLE8=Lee Ann Womack - Does My Ring Burn Your Finger (Vocal)
TTITLE9=Gretchen Wilson - Here For The Party (Vocal)
EXTD=
EXTT0=
EXTT1=
EXTT2=
EXTT3=
EXTT4=
EXTT5=
EXTT6=
EXTT7=
EXTT8=
EXTT9=
PLAYORDER=
